D:\school\WTK\thesis\model\3dpredictsim\Results\Batchsim_tmt_linear\Pog_s1_tmt_bCst_d05_k500_ig24_pas_GRF.mot
nRows=12
nColumns=19

name D:\school\WTK\thesis\model\3dpredictsim\Results\Batchsim_tmt_linear\Pog_s1_tmt_bCst_d05_k500_ig24_pas_GRF.mot
datacolumns 19
datarows 12
range 0.0000000000 0.1213222446
endheader
time 	ground_force_vx	ground_force_vy	ground_force_vz	ground_force_px	ground_force_py	ground_force_pz	1_ground_force_vx	1_ground_force_vy	1_ground_force_vz	1_ground_force_px	1_ground_force_py	1_ground_force_pz	ground_torque_x	ground_torque_y	ground_torque_z	1_ground_torque_x	1_ground_torque_y	1_ground_torque_z
        0.0000000000	      -73.7859529082	       60.1455803147	       27.4746041526	        0.1734051134	        0.0000000000	        0.0384074213	      100.6084934658	      526.0915719325	       -3.3430179445	       -0.3101973316	        0.0000000000	       -0.0355720330	        0.0000000000	        0.0000000000	        0.0000000000	        0.0000000000	        0.0000000000	        0.0000000000	
        0.0110292950	     -114.8438307472	      131.6653481046	       70.1575515796	        0.1809392400	        0.0000000000	        0.0360323590	       84.8906427763	      449.9033013965	       -7.5327973733	       -0.3070984341	        0.0000000000	       -0.0348754961	        0.0000000000	        0.0000000000	        0.0000000000	        0.0000000000	        0.0000000000	        0.0000000000	
        0.0220585899	      -46.1565962591	      261.3591782052	       35.7529248043	        0.1864789334	        0.0000000000	        0.0335153741	       68.9842687042	      365.3595479263	       -8.9360021888	       -0.3024638990	        0.0000000000	       -0.0334487896	        0.0000000000	        0.0000000000	        0.0000000000	        0.0000000000	        0.0000000000	        0.0000000000	
        0.0330878849	      -40.4338268375	      406.5038035554	        6.1452779108	        0.1896105562	        0.0000000000	        0.0331824253	       47.5918099500	      272.9553112296	       -5.3799649965	       -0.2949233009	        0.0000000000	       -0.0305014374	        0.0000000000	        0.0000000000	        0.0000000000	        0.0000000000	        0.0000000000	        0.0000000000	
        0.0441171798	      -66.1052058735	      580.9197148791	       -4.0902975730	        0.1969580357	        0.0000000000	        0.0352715928	       23.8647396421	      180.4201471207	       -6.4243635970	       -0.2811637254	        0.0000000000	       -0.0244063811	        0.0000000000	        0.0000000000	        0.0000000000	        0.0000000000	        0.0000000000	        0.0000000000	
        0.0551464748	      -93.4525872826	      731.1412862488	       -9.8491994130	        0.2038995574	        0.0000000000	        0.0373759058	        5.6332095588	      135.6898415943	      -11.7937834860	       -0.2715990861	        0.0000000000	       -0.0194727036	        0.0000000000	        0.0000000000	        0.0000000000	        0.0000000000	        0.0000000000	        0.0000000000	
        0.0661757698	     -106.8574161955	      808.1791806308	      -11.8140750711	        0.2086390923	        0.0000000000	        0.0386933883	        1.8919233678	      104.7735035083	      -12.4433087712	       -0.2712597277	        0.0000000000	       -0.0196122605	        0.0000000000	        0.0000000000	        0.0000000000	        0.0000000000	        0.0000000000	        0.0000000000	
        0.0772050647	     -106.4086922169	      826.4698012412	      -12.2528849104	        0.2120590571	        0.0000000000	        0.0394958760	       -1.8932191792	       67.9394642912	      -11.4399538748	       -0.2707537225	        0.0000000000	       -0.0196681720	        0.0000000000	        0.0000000000	        0.0000000000	        0.0000000000	        0.0000000000	        0.0000000000	
        0.0882343597	      -99.8541181159	      815.6717401712	      -12.4597167556	        0.2150188931	        0.0000000000	        0.0399676802	       -7.5195057225	       27.8190220386	       -5.8945217082	       -0.2710121315	        0.0000000000	       -0.0194151669	        0.0000000000	        0.0000000000	        0.0000000000	        0.0000000000	        0.0000000000	        0.0000000000	
        0.0992636547	      -90.5390445479	      797.6796434451	      -13.2513036306	        0.2181650910	        0.0000000000	        0.0402015268	        0.0787784240	       -0.0776342822	        0.0015147817	        0.0000000000	        0.0000000000	        0.0000000000	        0.0000000000	        0.0000000000	        0.0000000000	        0.0000000000	        0.0000000000	        0.0000000000	
        0.1102929496	      -78.7572446566	      771.4678348603	      -14.2295272990	        0.2214399313	        0.0000000000	        0.0403134610	        0.0000927033	       -0.0000748964	       -0.0000054430	        0.0000000000	        0.0000000000	        0.0000000000	        0.0000000000	        0.0000000000	        0.0000000000	        0.0000000000	        0.0000000000	        0.0000000000	
        0.1213222446	      -68.2867489274	      742.2913790076	      -14.6670718846	        0.2253494238	        0.0000000000	        0.0403448012	        0.0000427326	       -0.0000301036	       -0.0000032400	        0.0000000000	        0.0000000000	        0.0000000000	        0.0000000000	        0.0000000000	        0.0000000000	        0.0000000000	        0.0000000000	        0.0000000000	
